<svg viewBox="0 0 25 24" fill="none" xmlns="http://www.w3.org/2000/svg">
<circle cx="12.5" cy="12" r="12" fill="#334155"/>
<circle cx="12.5" cy="12" r="11.5" stroke="#F8FAFC" stroke-opacity="0.1"/>
<path d="M5.99753 13.9771C6.63013 17.3688 9.89251 19.6056 13.2843 18.973C16.676 18.3404 18.9128 15.078 18.2802 11.6862C17.6476 8.29448 14.3852 6.05774 10.9934 6.69033C7.60169 7.32292 5.36494 10.5853 5.99753 13.9771Z" fill="#64748B"/>
<circle cx="1.56181" cy="1.56181" r="1.56181" transform="matrix(-0.983048 0.183347 0.183347 0.983048 7.25781 11.7324)" fill="#64748B"/>
<ellipse cx="1.56181" cy="1.5618" rx="1.56181" ry="1.5618" transform="matrix(-0.983048 0.183347 0.183347 0.983048 19.5664 11.7324)" fill="#64748B"/>
<path fill-rule="evenodd" clip-rule="evenodd" d="M5.87893 11.2584C6.81188 11.901 7.99057 12.1683 9.17173 11.9031C10.37 11.634 11.3316 10.8706 11.8972 9.86982C12.8004 11.4629 14.6442 12.3536 16.494 11.9382C17.158 11.7891 17.7494 11.4882 18.2409 11.0792C18.2224 10.9716 18.201 10.8638 18.1768 10.756C17.4071 7.3284 14.0542 5.16261 10.6878 5.91854C8.06394 6.50772 6.20636 8.69791 5.87893 11.2584Z" fill="#1E293B"/>
<path fill-rule="evenodd" clip-rule="evenodd" d="M16.6307 7.77022L7.52491 7.68404C7.74076 5.92303 9.71619 4.55756 12.1076 4.58019C14.4989 4.60283 16.4482 6.00543 16.6307 7.77022Z" fill="#475569"/>
<rect x="6.00781" y="7.66797" width="12.1418" height="1.51772" rx="0.505908" transform="rotate(0.542194 6.00781 7.66797)" fill="#475569"/>
<path d="M10.5794 5.68758C10.5873 4.8494 11.2732 4.17635 12.1114 4.18428C12.9496 4.19222 13.6226 4.87812 13.6147 5.7163L13.5956 7.73984L10.5602 7.71112L10.5794 5.68758Z" fill="#334155"/>
</svg>
