<svg width="24" height="24" viewBox="0 0 24 24" fill="none" xmlns="http://www.w3.org/2000/svg">
<path fill-rule="evenodd" clip-rule="evenodd" d="M4.93517 11.9657C2.98255 13.9183 2.98255 17.0842 4.93517 19.0368C6.88779 20.9894 10.0536 20.9894 12.0062 19.0368L12.0064 19.0367L12.0065 19.0368C13.9591 20.9894 17.1249 20.9894 19.0776 19.0368C21.0302 17.0842 21.0302 13.9183 19.0776 11.9657L19.0774 11.9656C21.0299 10.013 21.0299 6.84722 19.0773 4.89464C17.1247 2.94206 13.959 2.94202 12.0064 4.89452C10.0537 2.94202 6.888 2.94206 4.93542 4.89464C2.98284 6.84722 2.98279 10.013 4.93529 11.9656L4.93517 11.9657Z" fill="#10B981"/>
</svg>
