<svg width="40" height="40" viewBox="0 0 40 40" fill="none" xmlns="http://www.w3.org/2000/svg">
<path d="M7.67515 24.3502C8.98624 31.3798 15.7477 36.0157 22.7774 34.7046C29.807 33.3935 34.4428 26.632 33.1317 19.6023C31.8207 12.5727 25.0592 7.93687 18.0295 9.24796C10.9999 10.559 6.36406 17.3206 7.67515 24.3502Z" fill="#F5C2D0"/>
<ellipse cx="1.21199" cy="1.16438" rx="1.21199" ry="1.16438" transform="matrix(9.68485e-09 -1 -1 -9.68485e-09 17.4023 24.4463)" fill="#334155"/>
<ellipse cx="1.22" cy="1.165" rx="1.22" ry="1.165" transform="matrix(-4.91277e-08 1 1 4.91277e-08 23.0625 21.9414)" fill="#334155"/>
<circle cx="3.23695" cy="3.23695" r="3.23695" transform="matrix(-0.983048 0.183347 0.183347 0.983048 10.291 19.7021)" fill="#F5C2D0"/>
<circle cx="3.23695" cy="3.23695" r="3.23695" transform="matrix(-0.983048 0.183347 0.183347 0.983048 35.8027 19.7021)" fill="#F5C2D0"/>
<path fill-rule="evenodd" clip-rule="evenodd" d="M7.44033 18.7104C9.37344 20.0408 11.8151 20.5939 14.2618 20.0445C16.746 19.4866 18.7396 17.9036 19.9117 15.8284C21.7841 19.1288 25.6046 20.9738 29.4376 20.1131C30.8154 19.8038 32.0423 19.179 33.0618 18.3298C33.0235 18.1076 32.9793 17.8851 32.9294 17.6625C31.3342 10.5586 24.3849 6.06988 17.4078 7.6366C11.9675 8.85823 8.11659 13.4008 7.44033 18.7104Z" fill="#1E293B"/>
<path fill-rule="evenodd" clip-rule="evenodd" d="M29.7131 11.4665L10.8406 11.2879C11.2874 7.63757 15.3819 4.80704 20.3386 4.85395C25.2954 4.90085 29.3356 7.80837 29.7131 11.4665Z" fill="#FACC15"/>
<rect x="7.69336" y="11.2588" width="25.1647" height="3.14559" rx="1.04853" transform="rotate(0.542194 7.69336 11.2588)" fill="#FACC15"/>
<path d="M17.1695 7.15424C17.1859 5.41706 18.6075 4.02212 20.3447 4.03856C22.0818 4.055 23.4768 5.47659 23.4603 7.21377L23.4207 11.4077L17.1298 11.3482L17.1695 7.15424Z" fill="#EAB308"/>
</svg>
