<svg width="40" height="40" viewBox="0 0 40 40" fill="none" xmlns="http://www.w3.org/2000/svg">
<g clip-path="url(#clip0_1996_79318)">
<path d="M19 8.5C19 7.67157 19.6716 7 20.5 7C21.3284 7 22 7.67157 22 8.5V34H19V8.5Z" fill="#B7876C"/>
<path d="M19 22.5V19.5V18.5H23L19 22.5Z" fill="#8B6149"/>
<rect x="3" y="10" width="34" height="11" rx="2" fill="white"/>
<path d="M12.3145 18H10.4468V12.6973H12.3364C13.9331 12.6973 14.9072 13.6934 14.9072 15.3413C14.9072 17.0039 13.9331 18 12.3145 18ZM11.5454 17.0552H12.2705C13.2812 17.0552 13.8086 16.5278 13.8086 15.3413C13.8086 14.1621 13.2812 13.6421 12.2778 13.6421H11.5454V17.0552ZM20.5615 15.3486C20.5615 17.0771 19.4849 18.0732 18.0859 18.0732C16.6724 18.0732 15.603 17.0698 15.603 15.3486C15.603 13.6201 16.6724 12.624 18.0859 12.624C19.4849 12.624 20.5615 13.6201 20.5615 15.3486ZM19.4409 15.3486C19.4409 14.2134 18.9062 13.5981 18.0859 13.5981C17.2656 13.5981 16.7236 14.2134 16.7236 15.3486C16.7236 16.4839 17.2656 17.0991 18.0859 17.0991C18.9062 17.0991 19.4409 16.4839 19.4409 15.3486ZM25.7764 12.6973V18H24.8242L22.4951 14.6309H22.4512V18H21.3525V12.6973H22.3193L24.6338 16.0664H24.6851V12.6973H25.7764ZM26.6699 18V12.6973H30.2295V13.6055H27.7686V14.8945H30.0464V15.8027H27.7686V17.0918H30.2368V18H26.6699Z" fill="#48AC3F"/>
<ellipse cx="20.5" cy="40" rx="16.5" ry="7" fill="#7C553E"/>
</g>
<defs>
<clipPath id="clip0_1996_79318">
<rect width="40" height="40" fill="white"/>
</clipPath>
</defs>
</svg>
